<svg width="30" height="33" viewBox="0 0 30 33" fill="none" xmlns="http://www.w3.org/2000/svg">
<path d="M23.4204 18.1051C19.7758 18.1051 16.8398 21.022 16.8398 24.6431C16.8398 28.2641 19.8095 31.181 23.4204 31.181C27.0312 31.181 30.0009 28.2641 30.0009 24.6431C30.0009 21.022 27.065 18.1051 23.4204 18.1051ZM27.0312 23.9725L23.0829 27.8953C22.6105 28.3647 21.8681 28.3647 21.3956 27.8953L19.8433 26.353C19.3708 25.8836 19.3708 25.146 19.8433 24.6766C20.3157 24.2072 21.0581 24.2072 21.5306 24.6766L22.2393 25.3807L25.3439 22.2961C25.8164 21.8267 26.5588 21.8267 27.0312 22.2961C27.5037 22.7655 27.5037 23.5031 27.0312 23.9725Z" fill="#F57343"/>
<path d="M15.1521 24.6431C15.1521 20.1168 18.8642 16.4288 23.42 16.4288H24.8036V1.37465C24.8036 0.603505 24.1961 0 23.42 0H1.3836C0.641181 0 0 0.603505 0 1.37465V31.4829C0 32.254 0.607435 32.8575 1.3836 32.8575H23.42C18.8642 32.8575 15.1521 29.1694 15.1521 24.6431ZM9.14527 23.0673H6.17559C5.39942 23.0673 4.79199 22.4638 4.79199 21.6927C4.79199 20.9215 5.39942 20.318 6.17559 20.318H9.14527C9.92143 20.318 10.5289 20.9215 10.5289 21.6927C10.5289 22.4638 9.92143 23.0673 9.14527 23.0673ZM12.0812 15.8252H6.17559C5.39942 15.8252 4.79199 15.2217 4.79199 14.4506C4.79199 13.6794 5.39942 13.0759 6.17559 13.0759H12.0475C12.8236 13.0759 13.4311 13.6794 13.4311 14.4506C13.4311 15.2217 12.8236 15.8252 12.0812 15.8252ZM6.17559 8.58318C5.39942 8.58318 4.79199 7.97968 4.79199 7.20853C4.79199 6.43739 5.39942 5.83388 6.17559 5.83388H14.8147C15.5908 5.83388 16.1983 6.43739 16.1983 7.20853C16.1983 7.97968 15.5908 8.58318 14.8147 8.58318H6.17559Z" fill="#F57343"/>
</svg>
