<svg width="125" height="24" viewBox="0 0 125 24" fill="none" xmlns="http://www.w3.org/2000/svg">
<path d="M11.026 -0.000488281C12.0816 -0.000488281 13.0568 0.0799405 13.9516 0.321227C14.8463 0.482085 15.5802 0.813854 16.2337 1.216C16.8872 1.61814 17.3698 2.1912 17.7016 2.92511C18.0233 3.65902 18.1942 4.55379 18.1942 5.52899C18.1942 6.66505 17.9529 7.64025 17.3798 8.37416C16.8872 9.10808 16.0829 9.76156 15.0977 10.2441C16.4851 10.6463 17.5407 11.3802 18.1841 12.3554C18.8276 13.3306 19.2398 14.5471 19.2398 15.9345C19.2398 17.0705 18.9985 18.0457 18.5863 18.8601C18.1841 19.6744 17.5306 20.4083 16.7967 20.8909C16.0628 21.3835 15.168 21.7857 14.1928 22.027C13.2176 22.2682 12.2424 22.4291 11.2672 22.4291L0.369141 22.4492V-0.000488281H11.026ZM10.3725 9.10808C11.2672 9.10808 12.0012 8.86679 12.5642 8.45459C13.1272 8.04239 13.3785 7.31854 13.3785 6.42376C13.3785 5.93114 13.2981 5.44857 13.1372 5.12685C12.9764 4.80513 12.7351 4.55379 12.4033 4.31251C12.0816 4.15165 11.7498 3.99079 11.3477 3.91036C10.9455 3.82994 10.5333 3.82993 10.0508 3.82993H5.33562V9.11813C5.33562 9.10808 10.3725 9.10808 10.3725 9.10808ZM10.6138 18.7093C11.1064 18.7093 11.589 18.6288 12.0012 18.5484C12.4033 18.468 12.8155 18.3071 13.1372 18.0558C13.4589 17.8044 13.7103 17.5632 13.9516 17.161C14.1124 16.7589 14.2733 16.2662 14.2733 15.6932C14.2733 14.5571 13.9516 13.7428 13.2981 13.1697C12.6446 12.6771 11.7498 12.4358 10.6942 12.4358H5.33562V18.6992H10.6138V18.7093ZM26.3175 18.6288C26.971 19.2823 27.9462 19.604 29.2431 19.604C30.1379 19.604 30.9522 19.3628 31.6057 18.9506C32.2592 18.4579 32.6613 17.9754 32.8222 17.4827H36.8034C36.1499 19.4331 35.1747 20.8205 33.8778 21.7153C32.5809 22.5296 31.0326 23.0122 29.1627 23.0122C27.8657 23.0122 26.7196 22.7709 25.664 22.3587C24.6084 21.9566 23.794 21.3835 23.0601 20.5692C22.3262 19.8353 21.7632 18.9405 21.4314 17.8849C21.0293 16.8292 20.8584 15.6932 20.8584 14.3862C20.8584 13.1697 21.0192 12.0236 21.4314 10.968C21.8436 9.91236 22.4066 9.01759 23.1406 8.20325C23.8745 7.46934 24.7692 6.81586 25.7444 6.41371C26.8001 6.01157 27.8557 5.76023 29.1627 5.76023C30.5501 5.76023 31.7665 6.00151 32.8222 6.57457C33.8778 7.14762 34.6921 7.79105 35.3456 8.76625C35.9991 9.66103 36.4817 10.7167 36.8135 11.8527C36.9743 12.9888 37.0547 14.1349 36.9743 15.4318H25.1814C25.1814 16.7589 25.664 17.9754 26.3175 18.6288ZM31.4448 10.0833C30.8718 9.51022 29.977 9.18851 28.9214 9.18851C28.1875 9.18851 27.6245 9.34936 27.1318 9.59065C26.6392 9.83194 26.3175 10.1637 25.9958 10.4854C25.6741 10.8071 25.5032 11.2193 25.4227 11.6215C25.3423 12.0236 25.2619 12.3554 25.2619 12.6771H32.5809C32.42 11.4707 32.0078 10.6563 31.4448 10.0833ZM24.2867 1.54777H33.3952V3.73945H24.2867V1.54777ZM43.3181 -0.000488281V8.45459H43.3986C43.9716 7.47939 44.6955 6.82591 45.5903 6.42376C46.485 6.02162 47.2994 5.77028 48.1941 5.77028C49.4106 5.77028 50.3858 5.93114 51.1197 6.26291C51.8536 6.58462 52.5071 7.07725 52.9093 7.6503C53.3114 8.22336 53.6432 8.94722 53.804 9.76156C53.9649 10.5759 54.0453 11.4707 54.0453 12.5263V22.5296H49.5715V13.3406C49.5715 11.9532 49.3302 10.978 48.918 10.3346C48.5058 9.69119 47.792 9.34936 46.7364 9.34936C45.5199 9.34936 44.6251 9.75151 44.1325 10.405C43.5594 11.1389 43.3181 12.3554 43.3181 13.9841V22.5296H38.8443V-0.000488281H43.3181ZM57.3128 8.6255C57.8054 7.89159 58.3684 7.40902 59.1023 6.91639C59.8362 6.51425 60.6506 6.18248 61.5453 6.02162C62.4401 5.86076 63.3349 5.78033 64.2296 5.78033C65.044 5.78033 65.8583 5.86076 66.7531 5.94119C67.5674 6.02162 68.3818 6.26291 69.0353 6.59468C69.7692 6.91639 70.2517 7.40902 70.7444 7.98207C71.1465 8.55513 71.3979 9.36947 71.3979 10.3447V18.8902C71.3979 19.6241 71.4783 20.3581 71.5587 21.0015C71.6391 21.655 71.8804 22.218 72.1318 22.5497H67.5775C67.4166 22.3889 67.3362 22.0571 67.2558 21.8158C67.1753 21.5745 67.1753 21.2428 67.1753 21.0015C66.4414 21.7354 65.6271 22.218 64.6519 22.5497C63.6767 22.8715 62.7015 22.9519 61.7263 22.9519C60.9119 22.9519 60.2585 22.8715 59.5346 22.6302C58.8811 22.4693 58.3181 22.1375 57.7451 21.7354C57.2524 21.3333 56.8503 20.8406 56.5286 20.1871C56.2873 19.5337 56.1264 18.8902 56.1264 17.9955C56.1264 17.1007 56.2873 16.2864 56.6191 15.7133C56.9408 15.1402 57.353 14.6577 57.8355 14.2455C58.3282 13.9238 58.9716 13.592 59.6251 13.4311C60.2786 13.2703 60.922 13.1094 61.6559 13.029C62.3094 12.9486 62.9528 12.8681 63.6063 12.7877C64.2598 12.7073 64.8228 12.6268 65.3154 12.5464C65.8081 12.3856 66.2102 12.2247 66.5319 11.9734C66.8536 11.7321 66.9341 11.4003 66.9341 10.9177C66.9341 10.4251 66.8536 10.023 66.6928 9.78167C66.5319 9.54038 66.2906 9.28904 66.0393 9.12818C65.798 8.96733 65.4662 8.8869 65.1445 8.80647C64.8228 8.72604 64.4106 8.72604 64.0085 8.72604C63.1137 8.72604 62.4602 8.8869 61.9776 9.2991C61.485 9.70124 61.1633 10.3547 61.0829 11.1691H56.609C56.5788 10.1637 56.9006 9.26894 57.3128 8.6255ZM66.18 14.9693C65.9387 15.0498 65.607 15.1302 65.2853 15.2106C64.9635 15.291 64.6318 15.291 64.2296 15.3715C63.9079 15.4519 63.4957 15.4519 63.174 15.5323C62.8523 15.6128 62.5205 15.6932 62.1988 15.7736C61.8771 15.854 61.5453 16.0149 61.3845 16.1758C61.1432 16.3366 60.9823 16.5779 60.8114 16.8292C60.5701 17.151 60.5701 17.4827 60.5701 17.8849C60.5701 18.287 60.6506 18.6188 60.8114 18.8601C60.9723 19.1014 61.1331 19.3527 61.3845 19.5136C61.6258 19.6744 61.9575 19.7548 62.2792 19.8353C62.6009 19.9157 62.9327 19.9157 63.3349 19.9157C64.2296 19.9157 64.8831 19.7548 65.3657 19.5136C65.8583 19.1918 66.18 18.8601 66.4213 18.4579C66.6626 18.0558 66.8235 17.6436 66.8235 17.2414C66.9039 16.8393 66.9039 16.5075 66.9039 16.2662V14.5571C66.6626 14.718 66.4213 14.8889 66.18 14.9693ZM78.1338 6.18248V8.46465H78.2142C78.7873 7.48945 79.5111 6.83596 80.4059 6.43382C81.3007 6.03167 82.2759 5.78033 83.1706 5.78033C84.3871 5.78033 85.3623 5.94119 86.0962 6.27296C86.9106 6.59468 87.4836 7.0873 87.8858 7.66036C88.2879 8.23341 88.6197 8.95727 88.861 9.77162C89.0218 10.586 89.1022 11.4807 89.1022 12.5364V22.5397H84.6284V13.3507C84.6284 11.9633 84.3871 10.9881 83.9749 10.3447C83.5728 9.69119 82.8389 9.28904 81.6927 9.28904C80.4763 9.28904 79.5815 9.78167 79.0084 10.5055C78.4354 11.2394 78.1941 12.4559 78.1941 14.0846V22.6302H73.7202V6.18248H78.1338ZM99.1257 9.10808C98.3918 9.10808 97.8288 9.26893 97.3362 9.6007C96.8435 9.92242 96.4414 10.3346 96.1197 10.8976C95.798 11.3902 95.627 11.9532 95.4662 12.6067C95.3053 13.2602 95.3053 13.8232 95.3053 14.4767C95.3053 15.0498 95.3858 15.6932 95.4662 16.2662C95.627 16.9197 95.7879 17.4023 96.1197 17.8949C96.4414 18.3876 96.7731 18.7897 97.2557 19.1114C97.7484 19.4331 98.3114 19.604 99.0453 19.604C100.101 19.604 100.915 19.2823 101.569 18.7093C102.142 18.1362 102.544 17.3219 102.624 16.2662H106.937C106.616 18.4579 105.801 20.0866 104.414 21.2327C103.026 22.3688 101.237 22.9418 99.0453 22.9418C97.8288 22.9418 96.6827 22.7005 95.7075 22.2884C94.6518 21.8862 93.8375 21.3132 93.1036 20.5792C92.3697 19.8453 91.8067 18.9506 91.3945 17.9754C90.9923 16.9197 90.8214 15.8641 90.8214 14.6376C90.8214 13.3406 90.9823 12.1945 91.3945 11.1389C91.7966 10.0833 92.2892 9.10808 93.0232 8.29374C93.7571 7.47939 94.6518 6.90634 95.627 6.42376C96.6827 6.02162 97.8187 5.77028 99.1257 5.77028C100.101 5.77028 100.996 5.93114 101.89 6.17242C102.785 6.41371 103.6 6.82591 104.253 7.30848C104.987 7.80111 105.55 8.44454 105.962 9.25888C106.364 9.99279 106.616 10.968 106.696 12.0236H102.303C102.132 10.0833 101.076 9.10808 99.1257 9.10808ZM113.683 18.6288C114.337 19.2823 115.392 19.604 116.609 19.604C117.504 19.604 118.318 19.3628 118.972 18.9506C119.625 18.4579 120.027 17.9754 120.188 17.4827H124.089C123.435 19.4331 122.46 20.8205 121.163 21.7153C119.866 22.5296 118.318 23.0122 116.448 23.0122C115.151 23.0122 114.005 22.7709 112.949 22.3587C111.894 21.9566 111.079 21.3835 110.346 20.5692C109.612 19.8353 109.049 18.9405 108.717 17.8849C108.315 16.8292 108.144 15.6932 108.144 14.3862C108.144 13.1697 108.305 12.0236 108.717 10.968C109.119 9.91236 109.692 9.01759 110.426 8.20325C111.16 7.46934 112.055 6.81586 113.03 6.41371C114.085 6.01157 115.222 5.76023 116.448 5.76023C117.835 5.76023 119.052 6.00151 120.027 6.57457C121.083 7.14762 121.897 7.79105 122.551 8.76625C123.204 9.66103 123.687 10.7167 124.018 11.8527C124.34 12.9888 124.421 14.2153 124.34 15.5122H112.547C112.547 16.7589 113.03 17.9754 113.683 18.6288ZM118.891 10.0833C118.318 9.51022 117.423 9.18851 116.368 9.18851C115.634 9.18851 115.071 9.34936 114.578 9.59065C114.085 9.83194 113.683 10.1637 113.442 10.4854C113.201 10.8071 112.949 11.2193 112.869 11.6215C112.789 12.0236 112.708 12.3554 112.708 12.6771H120.027C119.786 11.4707 119.374 10.6563 118.891 10.0833Z" fill="#211E1E"/>
</svg>
