<svg width="14" height="20" viewBox="0 0 14 20" fill="none" xmlns="http://www.w3.org/2000/svg">
<path fill-rule="evenodd" clip-rule="evenodd" d="M1.81819 0.666504C1.78414 0.666504 1.75019 0.666929 1.71634 0.667775H12.351C12.3172 0.666929 12.2832 0.666504 12.2492 0.666504H1.81819ZM12.2787 19.3331H1.78865C1.79849 19.3331 1.80833 19.3332 1.81819 19.3332H12.2492C12.259 19.3332 12.2689 19.3331 12.2787 19.3331ZM10.7913 16.5718H13.5222L13.5234 11.6853C13.5234 9.28647 13.013 7.44253 10.2452 7.44253C9.72584 7.423 9.21101 7.54651 8.7555 7.79989C8.29999 8.05327 7.92087 8.42703 7.6585 8.88138H7.62181V7.66409H5.00015V16.5715H7.73104V12.165C7.73104 11.0031 7.94866 9.87768 9.371 9.87768C10.7731 9.87768 10.7913 11.2073 10.7913 12.2402V16.5718ZM1.0383 6.17617C1.29894 6.35249 1.60536 6.44657 1.9188 6.44651C2.12691 6.44647 2.33298 6.40492 2.52524 6.32422C2.7175 6.24352 2.89218 6.12526 3.03931 5.97619C3.18645 5.82711 3.30315 5.65015 3.38276 5.4554C3.46237 5.26064 3.50332 5.05191 3.50328 4.84113C3.50323 4.52367 3.41023 4.21336 3.23604 3.94944C3.06186 3.68551 2.81431 3.47983 2.52471 3.3584C2.23511 3.23696 1.91646 3.20524 1.60906 3.26722C1.30165 3.32921 1.0193 3.48213 0.797708 3.70665C0.576114 3.93117 0.42523 4.2172 0.364136 4.52856C0.303043 4.83993 0.334484 5.16266 0.454484 5.45593C0.574483 5.7492 0.777651 5.99984 1.0383 6.17617ZM0.550505 16.5718H3.28424V7.66409H0.550505V16.5718Z" fill="#292929"/>
</svg>
