<svg width="16" height="16" viewBox="0 0 16 16" fill="none" xmlns="http://www.w3.org/2000/svg">
<path d="M13.3109 2.78191C12.0894 1.01409 10.1536 0 8.00009 0C5.84662 0 3.91078 1.01409 2.68931 2.78191C1.47384 4.54078 1.19319 6.76756 1.93706 8.73491C2.13603 9.27216 2.45231 9.79412 2.87487 10.2832L7.57419 15.8031C7.68047 15.928 7.83619 16 8.00009 16C8.164 16 8.31972 15.928 8.426 15.8031L13.124 10.2847C13.5484 9.79281 13.8643 9.27141 14.0616 8.73847C14.807 6.76756 14.5263 4.54078 13.3109 2.78191ZM13.014 8.34666C12.8618 8.75784 12.6134 9.16438 12.2761 9.55541C12.2752 9.55634 12.2742 9.55728 12.2735 9.55841L8.00009 14.5777L3.72409 9.55525C3.38694 9.16456 3.13853 8.75806 2.98487 8.34294C2.36969 6.71591 2.60316 4.87478 3.60959 3.41819C4.61919 1.95694 6.21956 1.11888 8.00009 1.11888C9.78059 1.11888 11.3808 1.95691 12.3904 3.41819C13.397 4.87478 13.6307 6.71591 13.014 8.34666Z" fill="#252525"/>
<path d="M8.00055 3.31934C6.27318 3.31934 4.86768 4.72465 4.86768 6.45221C4.86768 8.17977 6.27299 9.58509 8.00055 9.58509C9.72811 9.58509 11.1334 8.17977 11.1334 6.45221C11.1334 4.72484 9.72793 3.31934 8.00055 3.31934ZM8.00055 8.46618C6.89005 8.46618 5.98655 7.56268 5.98655 6.45218C5.98655 5.34168 6.89005 4.43818 8.00055 4.43818C9.11105 4.43818 10.0146 5.34168 10.0146 6.45218C10.0146 7.56268 9.11105 8.46618 8.00055 8.46618Z" fill="#252525"/>
</svg>
