<svg width="17" height="8" viewBox="0 0 17 8" fill="none" xmlns="http://www.w3.org/2000/svg">
<path d="M0.552453 4.31693C0.552641 4.31711 0.552797 4.31733 0.553015 4.31752L3.81877 7.56752C4.06342 7.81098 4.45914 7.81008 4.70267 7.56539C4.94617 7.32073 4.94523 6.92502 4.70058 6.68152L2.50795 4.49952L15.7441 4.49952C16.0893 4.49952 16.3691 4.21971 16.3691 3.87452C16.3691 3.52933 16.0893 3.24952 15.7441 3.24952L2.50798 3.24952L4.70055 1.06752C4.9452 0.824022 4.94614 0.428304 4.70264 0.183648C4.45911 -0.0610704 4.06336 -0.0619138 3.81873 0.181523L0.552984 3.43152C0.552796 3.43171 0.55264 3.43193 0.552421 3.43211C0.30764 3.67643 0.308422 4.07343 0.552453 4.31693Z" fill="#211e1e"/>
</svg>