<svg width="30" height="39" viewBox="0 0 30 39" fill="none" xmlns="http://www.w3.org/2000/svg">
<path fill-rule="evenodd" clip-rule="evenodd" d="M4.26316 0C1.90868 0 0 1.90868 0 4.26315V34.0702C0 36.4247 1.90868 38.3333 4.26316 38.3333H25.7368C28.0913 38.3333 30 36.4247 30 34.0702V4.26316C30 1.90868 28.0913 0 25.7368 0H4.26316ZM7.09584 17.2013H22.4116C23.1222 17.2013 23.6748 17.7604 23.7143 18.4791C23.7143 19.1979 23.1616 19.7569 22.4511 19.7569H7.09584C6.38531 19.7569 5.83268 19.1979 5.83268 18.4791C5.83268 17.7604 6.38531 17.2013 7.09584 17.2013ZM22.4116 23.3905H7.09584C6.38531 23.3905 5.83268 23.9495 5.83268 24.6683C5.83268 25.387 6.38531 25.9461 7.09584 25.9461H22.4511C23.1616 25.9461 23.7143 25.387 23.7143 24.6683C23.6748 23.9495 23.1222 23.3905 22.4116 23.3905ZM7.09584 29.5797H22.4116C23.1222 29.5797 23.7143 30.1387 23.7143 30.8574C23.7143 31.5762 23.1616 32.1352 22.4511 32.1352H7.09584C6.38531 32.1352 5.83268 31.5762 5.83268 30.8574C5.83268 30.1387 6.38531 29.5797 7.09584 29.5797ZM18.0697 13.6076C18.0697 12.0503 17.5566 10.7326 16.4908 10.0538C16.4513 10.0138 16.3724 10.0138 16.3329 10.0538C15.8987 10.3732 15.346 10.5728 14.7539 10.5728C14.1618 10.5728 13.6092 10.3732 13.175 10.0538C13.1355 10.0138 13.0566 10.0138 13.0171 10.0538C11.9513 10.7326 11.4382 12.0902 11.4382 13.6076C11.4382 14.6857 18.0697 14.6857 18.0697 13.6076ZM16.7267 7.89741C16.7267 9.00006 15.843 9.89393 14.753 9.89393C13.6629 9.89393 12.7793 9.00006 12.7793 7.89741C12.7793 6.79475 13.6629 5.90088 14.753 5.90088C15.843 5.90088 16.7267 6.79475 16.7267 7.89741Z" fill="#F8C546"/>
</svg>
