<svg width="74" height="74" viewBox="0 0 74 74" fill="none" xmlns="http://www.w3.org/2000/svg">
<g filter="url(#filter0_d_1_1076)">
<path d="M53.0401 10.9894C52.1898 10.1166 50.9313 9.79147 49.7578 10.1337L22.3936 18.0912C21.1555 18.4352 20.2779 19.4226 20.0415 20.6769C19.8 21.9536 20.6436 23.5741 21.7456 24.2518L30.3018 29.5106C31.1794 30.0496 32.3121 29.9144 33.0383 29.182L42.836 19.3233C43.3292 18.8099 44.1455 18.8099 44.6387 19.3233C45.1319 19.8196 45.1319 20.6239 44.6387 21.1373L34.824 30.9977C34.0961 31.7284 33.96 32.8664 34.4957 33.7494L39.7237 42.3914C40.3359 43.4182 41.3904 44 42.5468 44C42.6829 44 42.836 44 42.972 43.9829C44.2986 43.8118 45.353 42.9048 45.7442 41.6213L53.8565 14.2921C54.2136 13.1285 53.8905 11.8621 53.0401 10.9894Z" fill="#864BD8"/>
</g>
<defs>
<filter id="filter0_d_1_1076" x="0" y="0" width="74" height="74" filterUnits="userSpaceOnUse" color-interpolation-filters="sRGB">
<feFlood flood-opacity="0" result="BackgroundImageFix"/>
<feColorMatrix in="SourceAlpha" type="matrix" values="0 0 0 0 0 0 0 0 0 0 0 0 0 0 0 0 0 0 127 0" result="hardAlpha"/>
<feOffset dy="10"/>
<feGaussianBlur stdDeviation="10"/>
<feColorMatrix type="matrix" values="0 0 0 0 0.52549 0 0 0 0 0.294118 0 0 0 0 0.847059 0 0 0 0.2 0"/>
<feBlend mode="normal" in2="BackgroundImageFix" result="effect1_dropShadow_1_1076"/>
<feBlend mode="normal" in="SourceGraphic" in2="effect1_dropShadow_1_1076" result="shape"/>
</filter>
</defs>
</svg>
