<svg width="74" height="76" viewBox="0 0 74 76" fill="none" xmlns="http://www.w3.org/2000/svg">
<g filter="url(#filter0_d_1_1072)">
<path fill-rule="evenodd" clip-rule="evenodd" d="M52.0358 30.6703C52.6758 31.0095 53.1696 31.545 53.5171 32.0805C54.1937 33.1872 54.1389 34.5438 53.4805 35.7397L52.2004 37.8817C51.5237 39.0241 50.2619 39.7381 48.9634 39.7381C48.3234 39.7381 47.6102 39.5596 47.025 39.2026C46.5495 38.8992 46.0008 38.792 45.4156 38.792C43.6052 38.792 42.0873 40.2736 42.0324 42.0408C42.0324 44.0935 40.35 45.7 38.2469 45.7H35.7598C33.6384 45.7 31.9559 44.0935 31.9559 42.0408C31.9194 40.2736 30.4015 38.792 28.591 38.792C27.9875 38.792 27.4389 38.8992 26.9817 39.2026C26.3965 39.5596 25.665 39.7381 25.0432 39.7381C23.7265 39.7381 22.4646 39.0241 21.788 37.8817L20.5261 35.7397C19.8495 34.5795 19.8129 33.1872 20.4896 32.0805C20.7822 31.545 21.3308 31.0095 21.9526 30.6703C22.4646 30.4204 22.7938 30.0098 23.1047 29.5279C24.0191 27.9928 23.4705 25.9757 21.916 25.0654C20.1055 24.0479 19.5203 21.781 20.5627 20.0139L21.788 17.9075C22.8487 16.1404 25.1163 15.5157 26.9451 16.551C28.5361 17.4078 30.6026 16.8366 31.5353 15.3193C31.8279 14.8195 31.9925 14.284 31.9559 13.7485C31.9194 13.0524 32.1205 12.3919 32.468 11.8564C33.1446 10.7497 34.3699 10.0357 35.7049 10H38.2835C39.6367 10 40.862 10.7497 41.5387 11.8564C41.8678 12.3919 42.0873 13.0524 42.0324 13.7485C41.9959 14.284 42.1604 14.8195 42.453 15.3193C43.3857 16.8366 45.4522 17.4078 47.0615 16.551C48.872 15.5157 51.158 16.1404 52.2004 17.9075L53.4256 20.0139C54.4863 21.781 53.9011 24.0479 52.0723 25.0654C50.5179 25.9757 49.9693 27.9928 50.9019 29.5279C51.1945 30.0098 51.5237 30.4204 52.0358 30.6703ZM31.827 27.8679C31.827 30.6703 34.1495 32.9016 37.0206 32.9016C39.8918 32.9016 42.1595 30.6703 42.1595 27.8679C42.1595 25.0654 39.8918 22.8163 37.0206 22.8163C34.1495 22.8163 31.827 25.0654 31.827 27.8679Z" fill="#FFB200"/>
</g>
<defs>
<filter id="filter0_d_1_1072" x="0" y="0" width="74" height="75.7" filterUnits="userSpaceOnUse" color-interpolation-filters="sRGB">
<feFlood flood-opacity="0" result="BackgroundImageFix"/>
<feColorMatrix in="SourceAlpha" type="matrix" values="0 0 0 0 0 0 0 0 0 0 0 0 0 0 0 0 0 0 127 0" result="hardAlpha"/>
<feOffset dy="10"/>
<feGaussianBlur stdDeviation="10"/>
<feColorMatrix type="matrix" values="0 0 0 0 0.825 0 0 0 0 0.575882 0 0 0 0 0 0 0 0 0.2 0"/>
<feBlend mode="normal" in2="BackgroundImageFix" result="effect1_dropShadow_1_1072"/>
<feBlend mode="normal" in="SourceGraphic" in2="effect1_dropShadow_1_1072" result="shape"/>
</filter>
</defs>
</svg>
