<svg width="18" height="17" viewBox="0 0 18 17" fill="none" xmlns="http://www.w3.org/2000/svg">
<path d="M8.42752 0.906491C8.61102 0.535199 9.14051 0.535199 9.32401 0.906491L11.4949 5.29909C11.5692 5.44934 11.7138 5.55239 11.88 5.57355L16.8476 6.20579C17.2699 6.25954 17.4361 6.78276 17.1223 7.07039L13.5118 10.3795C13.3839 10.4968 13.3259 10.6719 13.3586 10.8423L14.2683 15.5858C14.3472 15.997 13.916 16.3172 13.5452 16.1228L9.10784 13.7976C8.9625 13.7214 8.78903 13.7214 8.64368 13.7976L4.20634 16.1228C3.83552 16.3172 3.40436 15.997 3.48321 15.5858L4.39293 10.8423C4.42561 10.6719 4.36762 10.4968 4.23972 10.3795L0.62924 7.07039C0.315416 6.78276 0.481659 6.25954 0.903949 6.20579L5.8715 5.57355C6.03776 5.55239 6.18236 5.44934 6.25662 5.29909L8.42752 0.906491Z" fill="url(#paint0_linear_1_1094)"/>
<defs>
<linearGradient id="paint0_linear_1_1094" x1="8.87576" y1="-0.000488281" x2="8.87576" y2="18.3571" gradientUnits="userSpaceOnUse">
<stop offset="0.0985536" stop-color="#FFA364"/>
<stop offset="0.788912" stop-color="#FFC112"/>
</linearGradient>
</defs>
</svg>
