<svg width="14" height="12" viewBox="0 0 14 12" fill="none" xmlns="http://www.w3.org/2000/svg">
<path d="M4.40211 11.9998C9.6854 11.9998 12.5746 7.38348 12.5746 3.38041C12.5746 3.2493 12.5721 3.11879 12.5665 2.98883C13.1286 2.55983 13.6138 2.02864 13.9993 1.42014C13.4846 1.66144 12.9308 1.82386 12.3498 1.89709C12.9428 1.52202 13.3981 0.928778 13.6129 0.221532C13.049 0.574326 12.4322 0.823011 11.7889 0.956872C11.2648 0.368045 10.5186 -0.000244141 9.69231 -0.000244141C8.1061 -0.000244141 6.81981 1.35643 6.81981 3.02872C6.81981 3.26645 6.84504 3.49769 6.89432 3.71946C4.50707 3.59277 2.39023 2.38732 0.973523 0.554345C0.718365 1.01662 0.584146 1.54205 0.584582 2.07695C0.584582 3.12796 1.09168 4.05579 1.86279 4.59859C1.40667 4.58392 0.960556 4.45398 0.561938 4.2197C0.561515 4.23243 0.561515 4.24482 0.561515 4.2584C0.561515 5.72551 1.5516 6.95043 2.86589 7.228C2.61905 7.29891 2.36433 7.33477 2.10849 7.33462C1.92731 7.33449 1.74655 7.3162 1.56866 7.27997C1.93434 8.48364 2.99471 9.35955 4.25188 9.38402C3.26879 10.1967 2.03037 10.6807 0.684413 10.6807C0.452852 10.6807 0.22411 10.6669 -0.000732422 10.6388C1.27048 11.4982 2.77992 11.9996 4.40226 11.9996" fill="#292929"/>
</svg>
