<svg width="74" height="74" viewBox="0 0 74 74" fill="none" xmlns="http://www.w3.org/2000/svg">
<g filter="url(#filter0_d_1_1064)">
<path fill-rule="evenodd" clip-rule="evenodd" d="M34.7975 12.5823C33.6579 12.5823 32.6884 13.3742 32.4163 14.4415H41.5669C41.2947 13.3742 40.3253 12.5823 39.1857 12.5823H34.7975ZM44.1521 14.4415H47.5198C51.0915 14.4415 54 17.3853 54 21.0005C54 21.0005 53.8979 22.5309 53.8639 24.6621C53.8605 24.8308 53.7789 24.9961 53.6445 25.0959C52.8264 25.7002 52.078 26.1994 52.01 26.2338C49.1866 28.1275 45.9057 29.46 42.4104 30.1227C42.1825 30.1675 41.958 30.0487 41.8423 29.8456C40.8626 28.1482 39.0325 27.043 36.9915 27.043C34.9641 27.043 33.117 28.1361 32.1084 29.8352C31.991 30.0349 31.7699 30.1503 31.5437 30.1072C28.0773 29.4427 24.7964 28.112 21.99 26.2511L20.3572 25.1149C20.2211 25.0288 20.1361 24.8738 20.1361 24.7017C20.085 23.8237 20 21.0005 20 21.0005C20 17.3853 22.9085 14.4415 26.4802 14.4415H29.8309C30.1541 11.9453 32.2461 10 34.7974 10H39.1856C41.7369 10 43.8289 11.9453 44.1521 14.4415ZM53.421 28.3859L53.3529 28.4203C49.9172 30.7271 45.7841 32.2593 41.447 32.8963C40.8347 32.9823 40.2224 32.5864 40.0523 31.9666C39.6781 30.555 38.4705 29.6254 37.0248 29.6254H37.0078H36.9737C35.528 29.6254 34.3204 30.555 33.9462 31.9666C33.7761 32.5864 33.1638 32.9823 32.5515 32.8963C28.2144 32.2593 24.0813 30.7271 20.6456 28.4203C20.6286 28.4031 20.4585 28.2998 20.3224 28.3859C20.1693 28.472 20.1693 28.6786 20.1693 28.6786L20.2884 37.4583C20.2884 41.0734 23.1798 44 26.7516 44H47.2299C50.8017 44 53.6931 41.0734 53.6931 37.4583L53.8292 28.6786C53.8292 28.6786 53.8292 28.472 53.6761 28.3859C53.591 28.3343 53.489 28.3515 53.421 28.3859ZM38.2657 35.599C38.2657 36.322 37.7044 36.8901 36.9901 36.8901C36.2927 36.8901 35.7145 36.322 35.7145 35.599V33.3783C35.7145 32.6724 36.2927 32.0871 36.9901 32.0871C37.7044 32.0871 38.2657 32.6724 38.2657 33.3783V35.599Z" fill="#FB5F1C"/>
</g>
<defs>
<filter id="filter0_d_1_1064" x="0" y="0" width="74" height="74" filterUnits="userSpaceOnUse" color-interpolation-filters="sRGB">
<feFlood flood-opacity="0" result="BackgroundImageFix"/>
<feColorMatrix in="SourceAlpha" type="matrix" values="0 0 0 0 0 0 0 0 0 0 0 0 0 0 0 0 0 0 127 0" result="hardAlpha"/>
<feOffset dy="10"/>
<feGaussianBlur stdDeviation="10"/>
<feColorMatrix type="matrix" values="0 0 0 0 0.691667 0 0 0 0 0.322726 0 0 0 0 0.164271 0 0 0 0.2 0"/>
<feBlend mode="normal" in2="BackgroundImageFix" result="effect1_dropShadow_1_1064"/>
<feBlend mode="normal" in="SourceGraphic" in2="effect1_dropShadow_1_1064" result="shape"/>
</filter>
</defs>
</svg>
